<svg width="1435" height="464" viewBox="0 0 1435 464" fill="none" xmlns="http://www.w3.org/2000/svg">
<rect x="-1" width="1436" height="464" fill="white" fill-opacity="0.04"/>
<circle cx="1240" cy="109" r="19.5" stroke="white"/>
<circle cx="1292" cy="109" r="20" fill="white"/>
<path fill-rule="evenodd" clip-rule="evenodd" d="M1243.71 102.293C1244.1 102.683 1244.1 103.317 1243.71 103.707L1238.41 109L1243.71 114.293C1244.1 114.683 1244.1 115.317 1243.71 115.707C1243.32 116.098 1242.68 116.098 1242.29 115.707L1236.29 109.707C1235.9 109.317 1235.9 108.683 1236.29 108.293L1242.29 102.293C1242.68 101.902 1243.32 101.902 1243.71 102.293Z" fill="white"/>
<path fill-rule="evenodd" clip-rule="evenodd" d="M1288.29 102.293C1287.9 102.683 1287.9 103.317 1288.29 103.707L1293.59 109L1288.29 114.293C1287.9 114.683 1287.9 115.317 1288.29 115.707C1288.68 116.098 1289.32 116.098 1289.71 115.707L1295.71 109.707C1296.1 109.317 1296.1 108.683 1295.71 108.293L1289.71 102.293C1289.32 101.902 1288.68 101.902 1288.29 102.293Z" fill="#090A14"/>
</svg>
