<svg width="92" height="40" viewBox="0 0 92 40" fill="none" xmlns="http://www.w3.org/2000/svg">
<circle cx="20" cy="20" r="19.5" stroke="white"/>
<circle cx="72" cy="20" r="20" fill="white" fill-opacity="0.04"/>
<path fill-rule="evenodd" clip-rule="evenodd" d="M23.7073 13.2929C24.0978 13.6834 24.0978 14.3166 23.7073 14.7071L18.4144 20L23.7073 25.2929C24.0978 25.6834 24.0978 26.3166 23.7073 26.7071C23.3168 27.0976 22.6836 27.0976 22.2931 26.7071L16.2931 20.7071C15.9026 20.3166 15.9026 19.6834 16.2931 19.2929L22.2931 13.2929C22.6836 12.9024 23.3168 12.9024 23.7073 13.2929Z" fill="white"/>
<path fill-rule="evenodd" clip-rule="evenodd" d="M68.2931 13.2929C67.9026 13.6834 67.9026 14.3166 68.2931 14.7071L73.586 20L68.2931 25.2929C67.9026 25.6834 67.9026 26.3166 68.2931 26.7071C68.6836 27.0976 69.3168 27.0976 69.7073 26.7071L75.7073 20.7071C76.0978 20.3166 76.0978 19.6834 75.7073 19.2929L69.7073 13.2929C69.3168 12.9024 68.6836 12.9024 68.2931 13.2929Z" fill="white"/>
</svg>
